<?xml version="1.0"?>
<svg width="474" height="175" xmlns="http://www.w3.org/2000/svg" xmlns:svg="http://www.w3.org/2000/svg" enable-background="new 0 0 1000 800" version="1.1" xml:space="preserve">
 <g class="layer">
  <title>Layer 1</title>
  <rect display="none" fill="#FFFFFF" height="800" id="svg_1" width="1000" x="0" y="0"/>
  <g id="svg_2">
   <g id="svg_3">
    <g id="svg_4">
     <polygon fill="#29ABE2" id="svg_5" points="101.10000610351562,116.70001220703125 84.29998779296875,106.89999389648438 67.39999389648438,97.20001220703125 67.39999389648438,116.70001220703125 67.39999389648438,136.10000610351562 84.29998779296875,126.39999389648438 "/>
     <polygon fill="#22B573" id="svg_6" points="67.39999389648438,97.20001220703125 84.29998779296875,87.5 101.10000610351562,77.79998779296875 101.10000610351562,97.20001220703125 101.10000610351562,116.70001220703125 84.29998779296875,106.89999389648438 "/>
     <polygon fill="#8CC63F" id="svg_7" points="101.10000610351562,77.79998779296875 84.29998779296875,68.10000610351562 67.39999389648438,58.29998779296875 67.39999389648438,77.79998779296875 67.39999389648438,97.20001220703125 84.29998779296875,87.5 "/>
     <polygon fill="#D9E021" id="svg_8" points="67.39999389648438,58.29998779296875 84.29998779296875,48.600006103515625 101.10000610351562,38.899993896484375 101.10000610351562,58.29998779296875 101.10000610351562,77.79998779296875 84.29998779296875,68.10000610351562 "/>
     <polygon fill="#FBB03B" id="svg_9" points="101.10000610351562,38.899993896484375 84.29998779296875,29.20001220703125 67.39999389648438,19.399993896484375 67.39999389648438,38.899993896484375 67.39999389648438,58.29998779296875 84.29998779296875,48.600006103515625 "/>
     <polygon fill="#F7931E" id="svg_10" points="33.79998779296875,38.899993896484375 50.600006103515625,29.20001220703125 67.39999389648438,19.399993896484375 67.39999389648438,38.899993896484375 67.39999389648438,58.29998779296875 50.600006103515625,48.600006103515625 "/>
     <polygon fill="#F15A24" id="svg_11" points="67.39999389648438,19.399993896484375 50.600006103515625,9.70001220703125 33.79998779296875,0 33.79998779296875,19.399993896484375 33.79998779296875,38.899993896484375 50.600006103515625,29.20001220703125 "/>
     <polygon fill="#0071BC" id="svg_12" points="33.79998779296875,116.70001220703125 50.600006103515625,106.89999389648438 67.39999389648438,97.20001220703125 67.39999389648438,116.70001220703125 67.39999389648438,136.10000610351562 50.600006103515625,126.39999389648438 "/>
    </g>
    <g id="svg_13">
     <polygon fill="#ED1C24" id="svg_14" points="33.79998779296875,155.60000610351562 50.600006103515625,165.29998779296875 67.39999389648438,175 67.39999389648438,155.60000610351562 67.39999389648438,136.10000610351562 50.600006103515625,145.79998779296875 "/>
     <polygon fill="#9E005D" id="svg_15" points="67.39999389648438,136.10000610351562 50.600006103515625,145.79998779296875 33.79998779296875,155.60000610351562 33.79998779296875,136.10000610351562 33.79998779296875,116.70001220703125 50.600006103515625,126.39999389648438 "/>
     <polygon fill="#D4145A" id="svg_16" points="0.1000060960650444,136.10000610351562 16.899993896484375,145.79998779296875 33.79998779296875,155.60000610351562 33.79998779296875,136.10000610351562 33.79998779296875,116.70001220703125 16.899993896484375,126.39999389648438 "/>
     <polygon fill="#ED1E79" id="svg_17" points="33.79998779296875,116.70001220703125 16.899993896484375,126.39999389648438 0.1000060960650444,136.10000610351562 0.1000060960650444,116.70001220703125 0.1000060960650444,97.20001220703125 16.899993896484375,106.89999389648438 "/>
     <polygon fill="#999999" id="svg_18" points="0.1000060960650444,58.29998779296875 16.899993896484375,68.10000610351562 33.79998779296875,77.79998779296875 33.79998779296875,58.29998779296875 33.79998779296875,38.899993896484375 16.899993896484375,48.600006103515625 "/>
     <polygon fill="#CCCCCC" id="svg_19" points="33.79998779296875,77.79998779296875 16.899993896484375,87.5 0.1000060960650444,97.20001220703125 0.1000060960650444,77.79998779296875 0.1000060960650444,58.29998779296875 16.899993896484375,68.10000610351562 "/>
     <polygon fill="#B085C9" id="svg_20" points="0.1000060960650444,97.20001220703125 16.899993896484375,106.89999389648438 33.79998779296875,116.70001220703125 33.79998779296875,97.20001220703125 33.79998779296875,77.79998779296875 16.899993896484375,87.5 "/>
     <polygon fill="#4D4D4D" id="svg_21" points="67.39999389648438,58.29998779296875 50.600006103515625,68.10000610351562 33.79998779296875,77.79998779296875 33.79998779296875,58.29998779296875 33.79998779296875,38.899993896484375 50.600006103515625,48.600006103515625 "/>
    </g>
   </g>
   <g id="svg_22">
    <path d="m134.2,59.8c1.1,0 1.6,0.5 1.6,1.6l0,6.8c0,1.1 -0.5,1.7 -1.6,1.7l-7.1,0c-1.1,0 -1.7,-0.6 -1.7,-1.7l0,-6.8c0,-1.1 0.6,-1.6 1.7,-1.6l7.1,0zm0,14.6c1.1,0 1.6,0.6 1.6,1.7l0,36.3c0,1.1 -0.5,1.6 -1.6,1.6l-7.1,0c-1.1,0 -1.6,-0.5 -1.6,-1.6l0,-36.3c0,-1.1 0.5,-1.7 1.6,-1.7l7.1,0z" fill="#ffffff" id="svg_23"/>
    <path d="m182.5,74.4c3.2,0 5.9,0.3 8.1,0.8c2.2,0.6 4,1.4 5.3,2.6c1.3,1.2 2.3,2.7 2.8,4.5c0.6,1.8 0.9,4.1 0.9,6.7l0,23.3c0,1.1 -0.5,1.6 -1.6,1.6l-7,0c-1.1,0 -1.6,-0.5 -1.6,-1.6l0,-20.8c0,-1.5 -0.1,-2.7 -0.3,-3.8c-0.2,-1 -0.6,-1.8 -1.1,-2.4c-0.6,-0.6 -1.3,-1 -2.3,-1.3c-1,-0.3 -2.2,-0.4 -3.7,-0.4l-19.2,0c-1.5,0 -2.8,0.1 -3.8,0.4c-1,0.3 -1.8,0.7 -2.4,1.3c-0.6,0.6 -1,1.4 -1.3,2.4c-0.2,1 -0.4,2.3 -0.4,3.8l0,20.9c0,1.1 -0.5,1.6 -1.6,1.6l-7.1,0c-1.1,0 -1.7,-0.5 -1.7,-1.6l0,-23.3c0,-2.6 0.3,-4.8 0.9,-6.7c0.6,-1.8 1.5,-3.4 2.8,-4.5c1.3,-1.2 3.1,-2 5.3,-2.6c2.2,-0.6 4.9,-0.8 8.2,-0.8l20.8,0l0,-0.1z" fill="#ffffff" id="svg_24"/>
    <path d="m252.2,74.4l0,-12.9c0,-1.1 0.5,-1.6 1.6,-1.6l7.1,0c1.1,0 1.6,0.5 1.6,1.6l0,37.9c0,2.6 -0.3,4.8 -0.9,6.7c-0.6,1.8 -1.5,3.4 -2.8,4.5c-1.3,1.2 -3.1,2 -5.3,2.6c-2.2,0.5 -4.9,0.8 -8.1,0.8l-20.2,0c-3.3,0 -6,-0.3 -8.2,-0.8c-2.2,-0.5 -3.9,-1.4 -5.3,-2.6c-1.3,-1.2 -2.3,-2.7 -2.8,-4.5c-0.6,-1.8 -0.9,-4.1 -0.9,-6.7l0,-10.4c0,-2.6 0.3,-4.8 0.9,-6.7c0.6,-1.8 1.5,-3.4 2.8,-4.5c1.3,-1.2 3.1,-2 5.3,-2.6c2.2,-0.6 4.9,-0.8 8.2,-0.8l27,0zm-8,30.9c1.6,0 2.9,-0.1 3.9,-0.4c1,-0.3 1.8,-0.7 2.4,-1.3c0.6,-0.6 1,-1.4 1.3,-2.4c0.2,-1 0.4,-2.3 0.4,-3.8l0,-14.3l-26.1,0c-1.5,0 -2.8,0.1 -3.8,0.4c-1,0.3 -1.8,0.7 -2.4,1.3c-0.6,0.6 -1,1.4 -1.3,2.4c-0.2,1 -0.4,2.3 -0.4,3.8l0,6.4c0,1.5 0.1,2.8 0.4,3.8c0.2,1 0.7,1.8 1.3,2.4c0.6,0.6 1.4,1 2.4,1.3c1,0.3 2.3,0.4 3.8,0.4l18.1,0z" fill="#ffffff" id="svg_25"/>
    <path d="m279.8,74.4c1.1,0 1.6,0.6 1.6,1.7l0,20.8c0,1.5 0.1,2.8 0.3,3.8c0.2,1 0.6,1.8 1.1,2.4c0.5,0.6 1.3,1 2.2,1.3c1,0.3 2.2,0.4 3.8,0.4l18.5,0c1.6,0 2.9,-0.1 3.9,-0.4c1,-0.3 1.8,-0.7 2.4,-1.3c0.6,-0.6 1,-1.4 1.3,-2.4s0.4,-2.3 0.4,-3.8l0,-20.8c0,-1.1 0.5,-1.7 1.6,-1.7l7.1,0c1.1,0 1.6,0.6 1.6,1.7l0,23.3c0,2.6 -0.3,4.8 -0.9,6.7c-0.6,1.8 -1.5,3.4 -2.8,4.5c-1.3,1.2 -3.1,2 -5.3,2.6c-2.2,0.5 -4.9,0.8 -8.1,0.8l-20.1,0c-3.3,0 -6,-0.3 -8.2,-0.8c-2.2,-0.5 -3.9,-1.4 -5.3,-2.6c-1.3,-1.2 -2.3,-2.7 -2.8,-4.5c-0.6,-1.8 -0.9,-4.1 -0.9,-6.7l0,-23.3c0,-1.1 0.6,-1.7 1.7,-1.7l6.9,0z" fill="#ffffff" id="svg_26"/>
    <path d="m367.9,65.7c1.2,-0.8 2.3,-1.4 3.3,-1.7c1,-0.3 2.3,-0.5 3.9,-0.5l4.2,0c2.1,0 3.7,0.5 4.7,1.5c1,1 1.5,2.9 1.5,5.9l0,23.7l5.9,0c1.1,0 1.6,0.6 1.6,1.7l0,5.8c0,1.1 -0.5,1.6 -1.6,1.6l-5.9,0l0,8.7c0,1.1 -0.5,1.6 -1.6,1.6l-7.4,0c-1.1,0 -1.7,-0.5 -1.7,-1.6l0,-8.7l-37.9,0c-1.5,0 -2.7,-0.4 -3.5,-1.2c-0.8,-0.8 -1.2,-1.9 -1.2,-3.2l0,-5.5c0,-1.3 0.2,-2.5 0.6,-3.3c0.4,-0.9 1.1,-1.7 2.2,-2.5l32.9,-22.3zm-23.6,28.4c0,0.3 0.2,0.5 0.6,0.5l30,0l0,-20.7c0,-0.5 -0.2,-0.8 -0.6,-0.8l-0.4,0c-0.5,0 -1,0.2 -1.6,0.6l-27.6,18.9c-0.3,0.2 -0.4,0.6 -0.4,1l0,0.5z" fill="#ffffff" id="svg_27"/>
    <path d="m408.2,103.9c1.1,0 1.6,0.5 1.6,1.6l0,6.9c0,1.1 -0.5,1.6 -1.6,1.6l-7.1,0c-1.1,0 -1.7,-0.5 -1.7,-1.6l0,-6.9c0,-1.1 0.6,-1.6 1.7,-1.6l7.1,0z" fill="#ffffff" id="svg_28"/>
    <path d="m453.8,63.6c3.6,0 6.7,0.3 9.3,1c2.5,0.7 4.6,1.8 6.2,3.3c1.6,1.5 2.8,3.5 3.5,5.9c0.7,2.4 1.1,5.3 1.1,8.8l0,12.4c0,3.5 -0.4,6.4 -1.1,8.8c-0.7,2.4 -1.9,4.4 -3.5,5.9c-1.6,1.5 -3.7,2.6 -6.2,3.3c-2.5,0.7 -5.6,1 -9.3,1l-16.6,0c-3.6,0 -6.7,-0.3 -9.3,-1c-2.5,-0.7 -4.6,-1.8 -6.2,-3.3c-1.6,-1.5 -2.8,-3.5 -3.5,-5.9c-0.7,-2.4 -1.1,-5.4 -1.1,-8.8l0,-12.4c0,-3.5 0.4,-6.4 1.1,-8.8c0.7,-2.4 1.9,-4.4 3.5,-5.9c1.6,-1.5 3.7,-2.6 6.2,-3.3c2.5,-0.7 5.6,-1 9.3,-1l16.6,0zm-26.2,30.9c0,1.9 0.1,3.5 0.4,4.8c0.3,1.3 0.8,2.3 1.5,3c0.7,0.7 1.7,1.3 2.9,1.6c1.2,0.3 2.8,0.5 4.6,0.5l16.6,0c1.9,0 3.4,-0.2 4.6,-0.5c1.2,-0.3 2.2,-0.8 2.9,-1.6c0.7,-0.7 1.2,-1.8 1.5,-3c0.3,-1.3 0.4,-2.9 0.4,-4.8l0,-11.5c0,-1.9 -0.1,-3.5 -0.4,-4.8c-0.3,-1.2 -0.8,-2.3 -1.5,-3c-0.7,-0.8 -1.7,-1.3 -2.9,-1.6c-1.2,-0.3 -2.8,-0.5 -4.6,-0.5l-16.6,0c-1.9,0 -3.4,0.2 -4.6,0.5c-1.2,0.3 -2.2,0.9 -2.9,1.6c-0.7,0.8 -1.2,1.8 -1.5,3c-0.3,1.2 -0.4,2.8 -0.4,4.8l0,11.5z" fill="#ffffff" id="svg_29"/>
   </g>
  </g>
 </g>
</svg>